{"accessors":[{"bufferView":2,"componentType":5126,"count":2132,"max":[4.537459850311279,2.782089948654175,3.0865800380706787],"min":[-2.1397600173950195,-2.6740899085998535,-0.0031799999997019768],"type":"VEC3","byteOffset":0},{"bufferView":2,"byteOffset":25584,"componentType":5126,"count":2132,"max":[0.9974427223205566,0.9994833469390869,0.9999999403953552],"min":[-0.9999901056289673,-0.9998156428337097,-0.9999999403953552],"type":"VEC3"},{"bufferView":3,"componentType":5126,"count":2132,"max":[0.9999356865882874,0.994019627571106,0.9999638795852661,1],"min":[-0.9960468411445618,-0.996414303779602,-1,-1],"type":"VEC4","byteOffset":0},{"bufferView":1,"componentType":5126,"count":2132,"max":[1,1],"min":[0,0],"type":"VEC2","byteOffset":0},{"bufferView":0,"componentType":5125,"count":5736,"max":[2131],"min":[0],"type":"SCALAR","byteOffset":0}],"asset":{"extras":{"author":"Christian Gentry (https://sketchfab.com/christianjgentry)","license":"CC-BY-4.0 (http://creativecommons.org/licenses/by/4.0/)","source":"https://sketchfab.com/models/57e95013d9b147808e67e38adcd72b1a","title":"Swiss Cheese"},"generator":"Sketchfab-3.19.5","version":"2.0"},"bufferViews":[{"buffer":0,"byteLength":22944,"byteOffset":0,"name":"floatBufferViews","target":34963},{"buffer":0,"byteLength":17056,"byteOffset":22944,"byteStride":8,"name":"floatBufferViews","target":34962},{"buffer":0,"byteLength":51168,"byteOffset":40000,"byteStride":12,"name":"floatBufferViews","target":34962},{"buffer":0,"byteLength":34112,"byteOffset":91168,"byteStride":16,"name":"floatBufferViews","target":34962},{"buffer":0,"byteOffset":125280,"byteLength":5359},{"buffer":0,"byteOffset":130640,"byteLength":482808},{"buffer":0,"byteOffset":613448,"byteLength":5355}],"buffers":[{"byteLength":618804,"uri":"data:application/octet-stream;base64,"}],"images":[{"bufferView":4,"mimeType":"image/png"},{"bufferView":5,"mimeType":"image/png"},{"bufferView":6,"mimeType":"image/png"}],"materials":[{"doubleSided":false,"name":"Scene_-_Root","normalTexture":{"index":1,"scale":1,"texCoord":0},"pbrMetallicRoughness":{"baseColorFactor":[1,1,1,1],"baseColorTexture":{"index":0,"texCoord":0},"metallicFactor":1,"metallicRoughnessTexture":{"index":2,"texCoord":0},"roughnessFactor":0.1846417683},"emissiveFactor":[0,0,0],"alphaMode":"OPAQUE"}],"meshes":[{"name":"Circle.001_0","primitives":[{"attributes":{"NORMAL":1,"POSITION":0,"TANGENT":2,"TEXCOORD_0":3},"indices":4,"material":0,"mode":4}]}],"nodes":[{"children":[1],"name":"RootNode (gltf orientation matrix)","rotation":[-0.7071067811865475,0,0,0.7071067811865476],"translation":[0,0,0],"scale":[1,1,1]},{"children":[2],"name":"RootNode (model correction matrix)"},{"children":[3],"name":"Root"},{"children":[4],"name":"Circle.001"},{"mesh":0,"name":"Circle.001_0"}],"samplers":[{"magFilter":9729,"minFilter":9987,"wrapS":10497,"wrapT":10497}],"scene":0,"scenes":[{"name":"OSG_Scene","nodes":[0]}],"textures":[{"sampler":0,"source":0},{"sampler":0,"source":1},{"sampler":0,"source":2}]}
